M48
; DRILL file {KiCad (5.1.2)-2} date 11/07/2019 8:01:34 p. m.
; FORMAT={-:-/ absolute / metric / decimal}
; #@! TF.CreationDate,2019-07-11T20:01:34-05:00
; #@! TF.GenerationSoftware,Kicad,Pcbnew,(5.1.2)-2
; #@! TF.FileFunction,Plated,1,2,PTH
FMAT,2
METRIC
T1C0.500
T2C0.700
T3C0.800
T4C1.000
%
G90
G05
T1
X128.795Y-102.185
X128.795Y-103.185
X128.795Y-104.185
X128.795Y-105.185
X128.795Y-106.185
X128.795Y-107.185
T2
X164.595Y-85.585
X172.215Y-85.585
X137.895Y-104.985
X145.515Y-104.985
X137.895Y-101.835
X145.515Y-101.835
X175.745Y-74.735
X183.365Y-74.735
X164.595Y-82.435
X172.215Y-82.435
X148.465Y-101.835
X156.085Y-101.835
X137.895Y-108.135
X145.515Y-108.135
T3
X147.965Y-95.285
X150.505Y-97.825
X153.045Y-95.285
X133.345Y-75.235
X133.345Y-77.775
X133.345Y-80.315
X133.345Y-82.855
X133.345Y-85.395
X133.345Y-87.935
X133.345Y-90.475
X143.505Y-75.235
X143.505Y-77.775
X143.505Y-80.315
X143.505Y-82.855
X143.505Y-85.395
X143.505Y-87.935
X143.505Y-90.475
X110.295Y-75.235
X110.295Y-77.775
X110.295Y-80.315
X110.295Y-82.855
X110.295Y-85.395
X110.295Y-87.935
X110.295Y-90.475
X110.295Y-93.015
X110.295Y-95.555
X110.295Y-98.095
X110.295Y-100.635
X110.295Y-103.175
X110.295Y-105.715
X110.295Y-108.255
X110.295Y-110.795
X110.295Y-113.335
X110.295Y-115.875
X110.295Y-118.415
X110.295Y-120.955
X110.295Y-123.495
X125.535Y-75.235
X125.535Y-77.775
X125.535Y-80.315
X125.535Y-82.855
X125.535Y-85.395
X125.535Y-87.935
X125.535Y-90.475
X125.535Y-93.015
X125.535Y-95.555
X125.535Y-98.095
X125.535Y-100.635
X125.535Y-103.175
X125.535Y-105.715
X125.535Y-108.255
X125.535Y-110.795
X125.535Y-113.335
X125.535Y-115.875
X125.535Y-118.415
X125.535Y-120.955
X125.535Y-123.495
X146.695Y-75.235
X146.695Y-77.775
X146.695Y-80.315
X146.695Y-82.855
X146.695Y-85.395
X146.695Y-87.935
X146.695Y-90.475
X156.855Y-75.235
X156.855Y-77.775
X156.855Y-80.315
X156.855Y-82.855
X156.855Y-85.395
X156.855Y-87.935
X156.855Y-90.475
X137.995Y-111.485
X140.495Y-111.485
X161.515Y-93.235
X164.055Y-95.775
X166.595Y-93.235
X92.71Y-104.34
X92.71Y-109.22
X159.135Y-99.985
X161.635Y-99.985
X166.165Y-75.885
X168.705Y-78.425
X171.245Y-75.885
T4
X160.795Y-75.485
X160.795Y-78.025
X160.795Y-80.565
X160.795Y-83.105
X160.795Y-85.645
X160.795Y-88.185
X129.445Y-118.235
X129.445Y-120.775
X129.445Y-75.485
X129.445Y-78.025
X129.445Y-80.565
X129.445Y-83.105
X129.445Y-85.645
X129.445Y-88.185
X129.445Y-90.725
X129.445Y-93.265
X129.445Y-95.805
X129.445Y-98.345
X129.445Y-111.035
X129.445Y-113.575
X134.095Y-113.785
X134.095Y-116.325
X134.095Y-101.535
X134.095Y-104.075
X134.095Y-106.615
X134.095Y-109.155
T0
M30
